<?xml version="1.0" encoding="utf-8"?>
<!-- Generator: Adobe Illustrator 18.1.1, SVG Export Plug-In . SVG Version: 6.00 Build 0)  -->
<svg version="1.1" id="Layer_1" xmlns="http://www.w3.org/2000/svg" xmlns:xlink="http://www.w3.org/1999/xlink" x="0px" y="0px"
	 viewBox="0 0 300 300" enable-background="new 0 0 300 300" xml:space="preserve">
<g>
	<path fill="#FFFFFF" d="M8.2,10.9h10.6c5.1,0,8,3.2,8,7.1c0,2.5-1.5,4.3-3.9,5c3.7,0.9,5.6,3.4,5.6,6.8c0,4.9-3.5,8.5-9.2,8.5H8.2
		V10.9z M18.2,21c1.8,0,3-1,3-2.6c0-1.6-1-2.6-2.7-2.6h-4.6V21H18.2z M19,33.3c2.3,0,3.7-1.5,3.7-3.8c0-2.2-1.5-3.7-4.1-3.7h-4.9
		v7.5H19z"/>
	<path fill="#FFFFFF" d="M32,21.1h5.4l-0.1,3.1c1.2-2.8,3.3-3.5,5-3.5c1.1,0,2,0.3,2.7,0.7l-1.7,5c-0.7-0.3-1.3-0.5-2.1-0.5
		c-2.5,0-3.8,1.1-3.8,4.8v7.6H32V21.1z"/>
	<path fill="#FFFFFF" d="M56.2,34.1c2,0,3.5-0.8,4.3-1.4l3.1,3.3c-1.7,1.4-3.7,2.5-7.3,2.5c-6.1,0-10.1-3.7-10.1-9
		c0-5.2,4.1-8.9,9.5-8.9c6.2,0,9.5,4.6,9.1,10.6h-13C52.3,33.1,53.7,34.1,56.2,34.1z M59.3,28.2c-0.2-1.9-1.4-3-3.6-3s-3.6,1-4,3
		H59.3z"/>
	<path fill="#FFFFFF" d="M65.7,21.1h6l2,4.9c0.6,1.4,1.2,3.8,1.2,3.8s0.6-2.4,1.4-3.8l2.8-5.3h0.4l3,5.3c0.8,1.4,1.5,3.8,1.5,3.8
		s0.6-2.4,1.2-3.8l2-4.9h5.4l-8,17.6h-0.5l-3.7-6.9c-0.7-1.2-1.2-3.4-1.2-3.4s-0.6,2.2-1.3,3.4L74,38.7h-0.4L65.7,21.1z"/>
	<path fill="#FFFFFF" d="M101.6,25.2c-2.1,0-3.1,0.9-3.9,1.6l-3-3.2c1.6-1.6,3.4-2.8,7.4-2.8c4.4,0,7.7,2.4,7.7,7.8v9.7h-5.4
		l0.1-2.4c-1.3,2-2.8,2.7-5.1,2.7c-3.1,0-6-1.4-6-5.4c0-3.7,2.8-5.2,7-5.2h4C104.4,26.1,103.4,25.2,101.6,25.2z M100.8,31.3
		c-1.4,0-2,0.6-2,1.6s0.8,1.5,2.3,1.5c2.2,0,3.3-1,3.3-2.4v-0.7H100.8z"/>
	<path fill="#FFFFFF" d="M130.9,21v3.9h-2.5c0.4,0.6,0.6,1.3,0.6,2.1c0,3.7-2.8,6.4-7.2,6.4c-1.4,0-2.5-0.2-3.5-0.7
		c-0.3,0.2-0.4,0.6-0.4,1c0,0.8,0.5,1.3,1.8,1.4l4.2,0.2c4.7,0.2,7.3,2.2,7.3,5.5c0,3.6-2.7,6.4-9.5,6.4c-6.2,0-9.2-2.4-9.2-5.6
		c0-1.9,1.2-3.1,3.1-3.8c-1.4-0.8-2.1-1.9-2.1-3.5c0-1.5,0.8-2.7,2.4-3.4c-1-1-1.5-2.4-1.5-3.9c0-3.7,3-6.3,7.4-6.3
		c0.9,0,1.8,0.1,2.5,0.3H130.9z M117.7,40.8c0,1.4,1,2.3,3.9,2.3c3.2,0,3.9-0.8,3.9-1.9c0-1-0.6-1.3-2.9-1.4l-4.5-0.3
		C117.9,39.9,117.7,40.3,117.7,40.8z M124.2,27c0-1.4-0.9-2.3-2.5-2.3c-1.7,0-2.5,0.9-2.5,2.3c0,1.4,0.9,2.4,2.5,2.4
		C123.3,29.4,124.2,28.4,124.2,27z"/>
	<path fill="#FFFFFF" d="M142.8,34.1c2,0,3.5-0.8,4.3-1.4l3.1,3.3c-1.7,1.4-3.7,2.5-7.3,2.5c-6.1,0-10.1-3.7-10.1-9
		c0-5.2,4.1-8.9,9.5-8.9c6.2,0,9.5,4.6,9.1,10.6h-13C138.9,33.1,140.4,34.1,142.8,34.1z M145.9,28.2c-0.2-1.9-1.4-3-3.6-3
		c-2.1,0-3.6,1-4,3H145.9z"/>
	<path fill="#FFFFFF" d="M171.2,25.2c-2.1,0-3.1,0.9-3.9,1.6l-3-3.2c1.6-1.6,3.4-2.8,7.4-2.8c4.4,0,7.7,2.4,7.7,7.8v9.7h-5.4
		l0.1-2.4c-1.3,2-2.8,2.7-5.1,2.7c-3.1,0-6-1.4-6-5.4c0-3.7,2.8-5.2,7-5.2h4C174,26.1,173,25.2,171.2,25.2z M165.9,10.5h6.2l2.1,7.6
		h-4.1L165.9,10.5z M170.4,31.3c-1.4,0-2,0.6-2,1.6s0.8,1.5,2.3,1.5c2.2,0,3.3-1,3.3-2.4v-0.7H170.4z"/>
	<path fill="#FFFFFF" d="M198.3,15.8h-7.8v-5h21.3v5h-7.8v22.4h-5.6V15.8z"/>
	<path fill="#FFFFFF" d="M210.5,21.1h5.4l-0.1,3.1c1.2-2.8,3.3-3.5,5-3.5c1.1,0,2,0.3,2.7,0.7l-1.7,5c-0.7-0.3-1.3-0.5-2.1-0.5
		c-2.5,0-3.8,1.1-3.8,4.8v7.6h-5.4V21.1z"/>
	<path fill="#FFFFFF" d="M224.7,29.7c0-5.2,4.1-9,9.5-9s9.4,3.7,9.4,9c0,5.2-4.1,8.9-9.4,8.9S224.7,34.9,224.7,29.7z M238,29.7
		c0-2.6-1.4-4.3-3.9-4.3c-2.4,0-3.9,1.7-3.9,4.3c0,2.5,1.5,4.3,3.9,4.3C236.6,34,238,32.2,238,29.7z"/>
	<path fill="#FFFFFF" d="M246.3,14.8c0-2,1.6-3.4,3.5-3.4c1.9,0,3.4,1.4,3.4,3.4c0,2-1.6,3.4-3.4,3.4
		C247.9,18.2,246.3,16.8,246.3,14.8z M247,21.1h5.4v17.1H247V21.1z"/>
	<path fill="#FFFFFF" d="M256.7,14.8c0-2,1.6-3.4,3.5-3.4c1.9,0,3.4,1.4,3.4,3.4c0,2-1.6,3.4-3.4,3.4
		C258.3,18.2,256.7,16.8,256.7,14.8z M257.4,21.1h5.4v17.1h-5.4V21.1z"/>
	<path fill="#FFFFFF" d="M267,14.8c0-2,1.6-3.4,3.5-3.4c1.9,0,3.4,1.4,3.4,3.4c0,2-1.6,3.4-3.4,3.4C268.6,18.2,267,16.8,267,14.8z
		 M267.7,21.1h5.4v17.1h-5.4V21.1z"/>
	<path fill="#FFFFFF" d="M276.2,35.3l3.2-2.8c1.2,1.1,2.7,1.8,4.3,1.8c1.8,0,2.3-0.3,2.3-1c0-0.9-1.1-0.9-3.9-1.7
		c-2.3-0.6-5-1.9-5-5.5c0-3.9,3-5.4,6.6-5.4c2.8,0,4.8,0.9,6.2,2.4l-2.9,3.1c-0.8-0.7-2-1.3-3.3-1.3c-1.2,0-1.9,0.3-1.9,1
		c0,1,1.1,1.1,3.4,1.6c2.5,0.6,5.6,1.7,5.6,5.4c0,3.1-1.7,5.7-7,5.7C280,38.6,277.7,37.1,276.2,35.3z"/>
</g>
</svg>
